<svg xmlns="http://www.w3.org/2000/svg" viewBox="0 0 5653.92 6899.52"><defs><style>.cls-1{opacity:0.4;}.cls-2{fill:#fff;stroke:#000;stroke-miterlimit:10;}</style></defs><title>Fichier 3</title><g id="Calque_2" data-name="Calque 2"><g id="Calque_2-2" data-name="Calque 2" class="cls-1"><polygon id="Zone_13" class="cls-2" points="2592.52 5267.19 2617.03 4478.77 2539.41 4413.41 2539.41 4192.81 1558.99 3959.96 1545.71 3972.9 1513.71 3970.86 1508.61 3953.83 1451.75 3953.49 1449.71 3968.13 1405.46 4005.24 1350.65 4009.66 1309.29 3978.34 1308.78 3958.94 1135.16 3950.77 1091.75 3983.96 1052.95 3982.94 1005.46 3934.43 991.16 3932.9 969.71 3947.71 915.07 3950.26 904.35 3943.11 894.14 3944.64 850.22 4182.09 805.97 4280.98 714.39 4375.62 601.03 4421.58 395.75 4414.43 239.5 4484.9 0.52 4638.09 30.14 5049.66 175.16 5331.54 349.8 5443.88 458.05 5583.79 577.54 5672.64 712.35 5746.17 951.33 5819.71 1058.56 5885.07 1163.75 5984.13 1429.29 6027.02 1612.1 5938.17 1727.5 5843.19 2070.65 5619.54 2378.05 5537.83 2451.58 5457.15 2498.56 5364.22 2583.33 5342.77 2597.63 5323.37 2583.97 5307.54 2592.52 5267.19"/><polygon id="Zone_17" class="cls-2" points="4283.75 6458 4220.18 6592.56 4256.18 6613.24 4282.99 6667.62 4283.75 6705.92 4302.14 6715.11 4345.03 6779.45 4505.88 6782.52 4518.9 6795.54 4574.05 6788.64 4664.44 6798.6 4697.37 6770.26 4885.03 6752.64 4920.27 6775.62 5016.77 6788.64 5052.77 6822.34 5069.63 6814.69 5150.82 6839.96 5153.88 6859.88 5201.37 6865.24 5280.27 6898.94 5346.14 6843.79 5417.37 6809.32 5487.07 6725.83 5494.73 6600.98 5509.29 6589.49 5493.2 6578.77 5484.01 6530.52 5495.5 6519.79 5468.56 6497.96 5469.97 6477.15 5487.07 6456.22 5486.31 6433.24 5478.65 6422.52 5474.82 6387.28 5445.71 6388.05 5423.5 6375.79 5402.82 6342.85 5376.77 6348.98 5353.03 6350.09 5312.52 6328.98 5277.2 6299.19 5244.27 6296.13 5227.75 6337.49 5186.56 6333.41 5161.03 6366.77 5114.05 6368.9 5093.97 6417.83 5054.48 6418.17 5026.56 6441.66 4953.97 6444.73 4940.77 6472.64 4886.65 6486.94 4842.05 6522 4819.24 6524.05 4788.6 6546.17 4750.48 6506.34 4712.69 6404.9 4652.95 6326.77 4684.35 6219.54 4790.82 5994.34 4646.05 5941.49 4515.07 6320.64 4636.1 6394.17 4720.35 6509.83 4693.54 6544.3 4645.29 6545.07 4591.84 6557.07 4553.03 6524.05 4513.54 6522.09 4489.03 6470.77 4435.41 6470.77 4427.75 6458.52 4364.95 6461.58 4315.92 6427.88 4283.75 6458"/><polygon id="Zone_16" class="cls-2" points="2633.37 4482.85 2809.03 4482.85 2866.22 4364.39 2935.67 4368.47 2894.82 4776.98 3066.39 4834.17 3127.67 4756.56 3291.07 4821.92 3315.58 4989.41 3401.37 5230.43 3495.33 5259.02 3585.2 5377.49 3670.99 5495.96 3544.35 5884.05 3867.07 6170 3899.75 6149.58 4128.52 6235.37 4283.75 6458 4220.18 6592.56 4038.65 6370.17 3969.2 6398.77 3515.75 6120.98 3164.43 6296.64 2682.39 5463.28 2674.22 5283.54 2592.52 5267.19 2633.37 4482.85"/><polygon id="Zone_11" class="cls-2" points="1135.16 3950.77 1558.99 3959.96 2565.97 4205.07 2635.41 4129.49 2721.2 4098.85 2874.39 4102.94 2974.48 4070.26 3248.18 3902.77 2790.65 3663.79 2784.52 3827.2 2688.52 3988.56 2582.31 3986.51 2478.14 3866 2420.95 3547.37 2484.26 3375.79 2431.16 3310.43 2378.05 3287.96 2343.33 3371.71 2329.03 3494.26 2271.84 3582.09 2124.78 3571.88 2061.46 3533.07 2094.14 3355.37 2024.69 3336.98 2000.18 3500.39 1855.16 3535.11 1842.9 3484.05 1765.29 3488.13 1665.2 3435.03 1652.95 3379.88 1522.22 3408.47 1516.67 3403.5 1472.68 3364.12 1346.56 3251.2 1179.07 3283.88 1164.78 3506.51 1038.14 3590.26 1044.27 3729.15 1089.2 3741.41 1109.63 3692.39 1197.46 3737.32 1183.16 3845.58 1135.16 3950.77"/><polygon id="Zone_2" class="cls-2" points="1587.58 3208.3 1516.67 3403.5 1472.68 3364.12 1563.07 3159.28 1524.27 3108.22 1526.31 2989.75 1636.95 2909.41 1661.46 2891.03 1660.43 2867.54 1643.07 2856.64 1653.97 2819.2 1657.71 2757.92 1640.69 2679.28 1663.16 2671.11 1712.86 2786.51 1715.92 2829.41 1726.48 2901.92 1849.03 2950.94 2081.88 3040.81 2112.52 3240.98 2071.67 3271.62 2081.88 3359.45 2024.69 3336.98 1987.92 3285.92 1969.54 3210.34 1889.88 3194 1855.16 3285.92 1728.52 3238.94 1628.43 3191.96 1587.58 3208.3"/><polygon id="Zone_12" class="cls-2" points="2794.73 3658.94 3248.18 3902.77 3262.73 3766.17 3433.54 3547.11 3415.67 3484.05 3462.65 3347.2 3366.65 3226.68 3364.61 3126.6 3605.63 2995.88 3691.41 2812.05 3166.48 2799.79 3223.67 3069.41 3172.61 3198.09 3060.26 3218.51 3056.18 3343.11 2915.24 3361.49 2882.56 3606.6 2794.73 3658.94"/><polygon id="Zone_6" class="cls-2" points="1179.07 3283.88 1346.56 3251.2 1358.82 3085.75 1297.54 3046.94 1273.03 2930.51 1281.2 2838.6 1373.12 2801.83 1377.2 2628.22 1563.07 2554.68 1630.48 2677.24 1671.33 2669.07 1642.73 2581.24 1693.8 2460.73 1673.37 2432.13 1789.8 2368.81 1767.33 2330 1851.07 2164.56 1808.18 2123.71 1724.43 2215.62 1518.14 2213.58 1364.95 2421.92 1285.29 2489.32 1197.46 2472.98 1150.48 2401.49 1068.78 2336.13 1040.18 2430.09 925.8 2399.45 854.31 2350.43 803.24 2291.2 687.58 2260.3 650.05 2239.62 655.41 2216.64 699.84 2209.75 723.58 2178.34 692.95 2121.66 674.56 2125.49 675.33 2157.66 644.69 2155.37 629.37 2140.05 588.77 2134.68 568.86 2157.66 538.22 2150 548.18 2174.51 581.12 2212.81 611.75 2255.71 652.35 2258 672.26 2271.79 782.56 2298.6 832.35 2343.03 823.16 2369.83 794.82 2374.43 722.05 2383.62 660.01 2443.37 660.77 2498.51 713.63 2517.66 731.24 2541.41 759.58 2509.24 813.97 2534.51 837.71 2640.22 874.48 2710.68 908.18 2719.11 938.82 2770.43 1006.22 2811.03 1047.58 2837.07 1075.16 2877.66 1103.5 2912.9 1131.07 2849.32 1141.8 2969.58 1157.12 3092.9 1109.63 3171.79 1114.99 3223.88 1179.07 3283.88"/><polygon id="Zone_10" class="cls-2" points="5402.05 1.49 5481.71 114.86 5098.73 375.28 5328.52 608.13 5294.82 831.79 5429.63 883.88 5448.01 1193.32 5604.27 1230.09 5653.29 1407.79 5493.97 1432.3 5371.41 1322 5408.18 1230.09 5270.31 1217.83 5160.01 1496.64 5144.69 1649.83 4939.41 1839.79 4485.97 1349.58 4470.65 724.56 4482.9 292.56 4764.77 347.71 4865.88 203.71 5009.88 228.22 5104.86 188.39 5193.71 225.15 5398.99 75.03 5402.05 1.49"/><polygon id="Zone_9" class="cls-2" points="3952.86 393.66 4038.65 430.43 4093.8 571.37 4216.35 666.34 4222.48 795.02 4121.37 847.11 4142.82 755.2 4087.67 687.79 3983.5 929.83 3885.46 948.22 3811.92 853.24 3830.31 801.15 4032.52 663.28 3888.52 608.13 3857.88 562.17 3857.88 488.64 3952.86 393.66"/><polygon id="Zone_8" class="cls-2" points="4394.05 696.98 4473.71 715.37 4489.03 1340.39 4942.48 1830.6 4905.71 1971.54 5074.22 2094.09 5083.41 2495.45 4829.12 2614.94 4602.39 2467.88 4473.71 2581.24 4148.95 2544.47 4078.48 2642.51 4022.16 2618.62 3888.13 2697 3932.95 2737.49 3879.33 2812.56 3721.54 2837.07 3691.41 2812.05 3166.48 2799.79 3196.09 2677.75 3194.56 2567.45 3122.56 2550.6 3107.24 2470.94 3185.37 2345.32 3070.48 2311.62 3085.8 2230.43 3093.46 2081.83 3039.84 2015.96 3036.78 1913.32 3058.22 1859.71 3136.35 1824.47 3238.99 1818.34 3808.86 1199.45 3864.01 1089.15 3839.5 1012.56 3888.52 939.02 4063.16 911.45 4139.75 819.54 4305.2 804.22 4394.05 696.98"/><polygon id="Zone_3" class="cls-2" points="1063.67 2330 1154.56 2405.58 1197.46 2472.98 1285.29 2489.32 1361.88 2428.05 1518.14 2213.58 1630.48 2215.62 1736.69 2169.66 1722.39 2069.58 1705.54 2043.54 1642.73 2072.64 1632.01 2008.3 1707.07 1988.39 1708.61 1962.34 1771.41 1966.94 1714.73 1867.37 1572.27 1943.96 1457.37 1965.41 1368.52 1966.94 1345.54 1916.39 1396.1 1908.73 1388.43 1853.58 1419.07 1821.41 1465.03 1829.07 1480.35 1780.05 1543.16 1757.07 1572.27 1649.83 1625.88 1649.83 1671.84 1505.83 1610.56 1479.79 1641.2 1406.26 1682.56 1320.47 1674.9 1144.3 1650.39 1119.79 1607.5 1158.09 1607.5 1049.32 1639.67 1034 1632.01 991.11 1596.78 997.24 1563.07 929.83 1517.12 948.22 1563.07 1052.39 1589.12 1168.81 1566.14 1219.37 1558.48 1280.64 1570.73 1341.92 1515.58 1455.28 1454.31 1507.37 1489.54 1608.47 1445.12 1723.37 1380.78 1691.19 1235.24 1738.68 1227.58 1807.62 1157.12 1839.79 1163.24 1862.77 1141.8 1875.03 1167.84 1928.64 1103.5 2057.32 1129.54 2132.39 1095.84 2161.49 1071.33 2265.66 1083.58 2303.96 1063.67 2330"/><polygon id="Zone_7" class="cls-2" points="3784.35 1214.77 3284.95 1775.45 3229.8 1701.92 3189.97 1582.43 3162.39 1548.73 3070.48 1404.73 2917.29 1573.24 2733.46 1803.03 2500.61 1775.45 2344.35 1815.28 2325.97 1603.88 2393.37 1521.15 2791.67 1450.68 2831.5 1288.3 2705.88 1227.03 2727.33 706.17 2810.05 464.13 2984.69 491.71 3015.33 696.98 3101.12 798.09 3061.29 988.05 3091.92 1147.37 3291.07 1165.75 3309.46 1104.47 3658.73 1162.68 3692.43 1211.71 3784.35 1214.77"/><polygon id="Zone_1" class="cls-2" points="1650.39 1119.79 1713.2 1671.28 1714.73 1867.37 1771.41 1966.94 1808.18 2123.71 1851.07 2164.56 1909.29 2112.47 1909.29 1962.34 2074.73 1885.75 2267.75 1996.05 2399.5 2130.86 2506.73 2127.79 2436.26 2020.56 2503.67 1937.83 2653.8 1940.9 2834.56 1904.13 2963.24 2048.13 3024.52 2078.77 3064.35 2060.39 3039.84 2015.96 3036.78 1913.32 2954.05 1925.58 2911.16 1848.98 2791.67 1815.28 2641.54 1796.9 2424.01 1830.6 2298.39 1821.41 2194.22 1839.79 2090.05 1778.52 2037.97 1616.13 2102.31 1560.98 2329.03 1640.64 2381.12 1542.6 2230.99 1508.9 2053.29 1413.92 2108.43 1233.15 2316.78 1122.86 2620.09 1230.09 2705.88 1227.03 2712.01 1110.6 2466.9 1061.58 2322.9 929.83 2267.75 926.77 2206.48 1021.75 2197.29 954.34 2120.69 942.09 2001.2 905.32 1802.05 981.92 1756.1 1104.47 1650.39 1119.79"/></g></g></svg>