<svg xmlns="http://www.w3.org/2000/svg" viewBox="0 0 5510.14 2967.14"><defs><style>.cls-1,.cls-2{opacity:0.4;}.cls-2,.cls-3{fill:#fff;stroke:#000;stroke-miterlimit:10;}</style></defs><title>Fichier 2</title><g id="Calque_2" data-name="Calque 2"><g id="Calque_2-2" data-name="Calque 2" class="cls-1"><polygon id="Zone_13" class="cls-2" points="2592.52 1334.82 2617.03 546.39 2539.41 481.03 2539.41 260.43 1558.99 27.58 1545.71 40.52 1513.71 38.47 1508.61 21.45 1451.75 21.11 1449.71 35.75 1405.46 72.86 1350.65 77.28 1309.29 45.96 1308.78 26.56 1135.16 18.39 1091.75 51.58 1052.95 50.56 1005.46 2.05 991.16 0.52 969.71 15.32 915.07 17.88 904.35 10.73 894.14 12.26 850.22 249.71 805.97 348.6 714.39 443.24 601.03 489.2 395.75 482.05 239.5 552.52 0.52 705.71 30.14 1117.28 175.16 1399.15 349.8 1511.5 458.05 1651.41 577.54 1740.26 712.35 1813.79 951.33 1887.33 1058.56 1952.69 1163.75 2051.75 1429.29 2094.64 1612.1 2005.79 1727.5 1910.82 2070.65 1687.15 2378.05 1605.45 2451.58 1524.77 2498.56 1431.84 2583.33 1410.39 2597.63 1390.98 2583.97 1375.15 2592.52 1334.82"/><polygon id="Zone_17" class="cls-2" points="4283.75 2525.62 4220.18 2660.18 4256.18 2680.86 4282.99 2735.24 4283.75 2773.54 4302.14 2782.73 4345.03 2847.07 4505.88 2850.13 4518.9 2863.16 4574.05 2856.26 4664.44 2866.22 4697.37 2837.88 4885.03 2820.26 4920.27 2843.24 5016.77 2856.26 5052.77 2889.96 5069.63 2882.3 5150.82 2907.58 5153.88 2927.5 5201.37 2932.86 5280.27 2966.56 5346.14 2911.41 5417.37 2876.94 5487.07 2793.45 5494.73 2668.6 5509.29 2657.11 5493.2 2646.39 5484.01 2598.13 5495.5 2587.41 5468.56 2565.58 5469.97 2544.77 5487.07 2523.84 5486.31 2500.86 5478.65 2490.13 5474.82 2454.9 5445.71 2455.67 5423.5 2443.41 5402.82 2410.47 5376.77 2416.6 5353.03 2417.71 5312.52 2396.6 5277.2 2366.82 5244.27 2363.75 5227.75 2405.11 5186.56 2401.03 5161.03 2434.39 5114.05 2436.52 5093.97 2485.45 5054.48 2485.79 5026.56 2509.28 4953.97 2512.35 4940.77 2540.26 4886.65 2554.56 4842.05 2589.62 4819.24 2591.67 4788.6 2613.79 4750.48 2573.96 4712.69 2472.52 4652.95 2394.39 4684.35 2287.16 4790.82 2061.96 4646.05 2009.11 4515.07 2388.26 4636.1 2461.79 4720.35 2577.45 4693.54 2611.92 4645.29 2612.69 4591.84 2624.69 4553.03 2591.67 4513.54 2589.71 4489.03 2538.39 4435.41 2538.39 4427.75 2526.13 4364.95 2529.2 4315.92 2495.5 4283.75 2525.62"/><polygon id="Zone_16" class="cls-3" points="2633.37 550.47 2809.03 550.47 2866.22 432.01 2935.67 436.09 2894.82 844.6 3066.39 901.79 3127.67 824.18 3291.07 889.54 3315.58 1057.03 3401.37 1298.05 3495.33 1326.64 3585.2 1445.11 3670.99 1563.58 3544.35 1951.67 3867.07 2237.62 3899.75 2217.2 4128.52 2302.99 4283.75 2525.62 4220.18 2660.18 4038.65 2437.79 3969.2 2466.39 3515.75 2188.6 3164.43 2364.26 2682.39 1530.9 2674.22 1351.15 2592.52 1334.82 2633.37 550.47"/></g></g></svg>